<?xml version="1.0" encoding="UTF-8" standalone="no"?>
<!-- Created with Inkscape (http://www.inkscape.org/) -->

<svg
   width="100%"
   height="100%"
   viewBox="0 0 434.78979 350.55173"
   version="1.1"
   id="svg1299"
   inkscape:export-filename="bitmap.svg"
   inkscape:export-xdpi="96"
   inkscape:export-ydpi="96"
   xmlns:inkscape="http://www.inkscape.org/namespaces/inkscape"
   xmlns:sodipodi="http://sodipodi.sourceforge.net/DTD/sodipodi-0.dtd"
   xmlns="http://www.w3.org/2000/svg"
   xmlns:svg="http://www.w3.org/2000/svg">
   <style>
            .lineaDiscontinua {fill:#d9a032;fill-opacity:1;stroke-width:0.264583}
      </style>
  <sodipodi:namedview
     id="namedview1301"
     pagecolor="#ffffff"
     bordercolor="#000000"
     borderopacity="0.25"
     inkscape:showpageshadow="2"
     inkscape:pageopacity="0.0"
     inkscape:pagecheckerboard="0"
     inkscape:deskcolor="#d1d1d1"
     inkscape:document-units="mm"
     showgrid="false" />
  <defs
     id="defs1296" />
  <g
     inkscape:label="Capa 1"
     inkscape:groupmode="layer"
     id="layer1"
     
     transform="matrix(0.98738418,0,0,1.0039329,164.23313,58.661865)">
    <path
       d="m 268.74839,-52.31238 -0.0265,-1.322917 c 1.74625,-0.02646 3.54542,-0.05292 5.29167,-0.05292 v 1.322916 c -1.74625,0.02646 -3.51896,0.02646 -5.26521,0.05292 z"
       id="path877"
       class="lineaDiscontinua" />
    <path
       d="m 260.81089,-52.100713 -0.0529,-1.322917 c 1.74625,-0.05292 3.54541,-0.105833 5.31812,-0.15875 l 0.0265,1.322917 c -1.77271,0.05292 -3.54542,0.105833 -5.29167,0.15875 z"
       id="path873"
       class="lineaDiscontinua" />
    <path
       d="m 252.87339,-51.730297 -0.0794,-1.322916 c 1.74625,-0.105834 3.54541,-0.185209 5.29166,-0.264584 l 0.0529,1.322917 c -1.74625,0.07937 -3.51896,0.15875 -5.26521,0.264583 z"
       id="path869"
       class="lineaDiscontinua" />
    <path
       d="m 244.96235,-51.174672 -0.10583,-1.322916 c 1.74625,-0.132292 3.51896,-0.264584 5.29167,-0.396875 l 0.0794,1.322916 c -1.74625,0.132292 -3.51896,0.264584 -5.26521,0.396875 z"
       id="path865"
       class="lineaDiscontinua" />
    <path
       d="m 237.10423,-50.433838 -0.13229,-1.322917 c 1.74625,-0.185208 3.51895,-0.343958 5.2652,-0.529167 l 0.10584,1.322917 c -1.74625,0.185208 -3.51896,0.343958 -5.23875,0.529167 z"
       id="path861"
       class="lineaDiscontinua" />
    <path
       d="m 229.2461,-49.507797 -0.18521,-1.322916 c 1.74625,-0.238125 3.4925,-0.449792 5.26521,-0.635 l 0.15875,1.322916 c -1.74625,0.211667 -3.51896,0.423334 -5.23875,0.635 z"
       id="path857"
       class="lineaDiscontinua" />
    <path
       d="m 221.41444,-48.370088 -0.21167,-1.296459 c 1.71979,-0.264583 3.4925,-0.529166 5.23875,-0.767291 l 0.18521,1.296458 c -1.74625,0.238125 -3.4925,0.502708 -5.21229,0.767292 z"
       id="path853"
       class="lineaDiscontinua" />
    <path
       d="m 213.63569,-47.020713 -0.23813,-1.296459 c 1.71979,-0.3175 3.4925,-0.635 5.23875,-0.926041 l 0.21167,1.296458 c -1.77271,0.291042 -3.51896,0.582083 -5.21229,0.926042 z"
       id="path849"
       class="lineaDiscontinua" />
    <path
       d="m 205.85694,-45.459672 -0.29105,-1.296458 c 1.69334,-0.370417 3.46605,-0.740833 5.18584,-1.058333 l 0.26458,1.296458 c -1.71979,0.3175 -3.46604,0.687917 -5.15937,1.058333 z"
       id="path845"
       class="lineaDiscontinua" />
    <path
       d="m 198.15756,-43.660505 -0.3175,-1.27 c 1.69333,-0.423333 3.43958,-0.846667 5.15938,-1.217083 l 0.29104,1.296458 c -1.71979,0.343958 -3.43959,0.767292 -5.13292,1.190625 z"
       id="path839"
       class="lineaDiscontinua" />
    <path
       d="m 190.5111,-41.623213 -0.37041,-1.27 c 1.66687,-0.47625 3.41312,-0.9525 5.10645,-1.402292 l 0.34396,1.27 c -1.71979,0.449792 -3.41312,0.926042 -5.08,1.402292 z"
       id="path835"
       class="lineaDiscontinua" />
    <path
       d="m 182.91756,-39.321339 -0.39687,-1.269999 c 1.66687,-0.529167 3.3602,-1.058334 5.08,-1.561042 l 0.37041,1.27 c -1.69333,0.47625 -3.38666,1.005416 -5.05354,1.561041 z"
       id="path831"
       class="lineaDiscontinua" />
    <path
       d="m 175.45631,-36.75488 -0.44979,-1.243542 c 1.64042,-0.608542 3.33375,-1.190625 5.00062,-1.772708 l 0.42334,1.243541 c -1.66688,0.582084 -3.36021,1.164167 -4.97417,1.772709 z"
       id="path827"
       class="lineaDiscontinua" />
    <path
       d="m 168.07444,-33.89738 -0.50271,-1.217084 c 1.61396,-0.661458 3.28083,-1.322916 4.94771,-1.957916 l 0.47625,1.243541 c -1.66688,0.608542 -3.3073,1.27 -4.92125,1.931459 z"
       id="path823"
       class="lineaDiscontinua" />
    <path
       d="m 160.82485,-30.72238 -0.55562,-1.190625 c 1.5875,-0.740834 3.22791,-1.455209 4.84187,-2.169584 l 0.52917,1.217084 c -1.61396,0.687916 -3.22792,1.402291 -4.81542,2.143125 z"
       id="path815"
       class="lineaDiscontinua" />
    <path
       d="m 153.73402,-27.22988 -0.60854,-1.164167 c 1.56104,-0.820208 3.14854,-1.613958 4.73604,-2.38125 l 0.58208,1.190625 c -1.5875,0.740833 -3.175,1.534583 -4.70958,2.354792 z"
       id="path805"
       class="lineaDiscontinua" />
    <path
       d="m 146.82839,-23.41988 -0.66145,-1.137709 c 1.50812,-0.873125 3.06916,-1.772708 4.6302,-2.619375 l 0.635,1.164167 c -1.5875,0.846667 -3.12208,1.719792 -4.60375,2.592917 z"
       id="path799"
       class="lineaDiscontinua" />
    <path
       d="m 140.10798,-19.239464 -0.74084,-1.11125 c 1.45521,-0.978958 2.96334,-1.931458 4.47146,-2.8575 l 0.68792,1.137709 c -1.48167,0.926041 -2.96333,1.878541 -4.41854,2.831041 z"
       id="path795"
       class="lineaDiscontinua" />
    <path
       d="m 133.65214,-14.68863 -0.79375,-1.058334 c 1.4023,-1.058333 2.8575,-2.090208 4.31271,-3.095625 l 0.74084,1.084792 c -1.42875,1.005417 -2.8575,2.037292 -4.2598,3.069167 z"
       id="path789"
       class="lineaDiscontinua" />
    <path
       d="m 127.46089,-9.7673806 -0.84666,-1.0054164 c 1.34937,-1.137709 2.72521,-2.248959 4.1275,-3.360208 l 0.82021,1.031874 c -1.4023,1.084792 -2.75167,2.196042 -4.10105,3.3337504 z"
       id="path783"
       class="lineaDiscontinua" />
    <path
       d="m 121.64006,-4.5021723 -0.92604,-0.9525 c 1.27,-1.2170833 2.56646,-2.4077083 3.88937,-3.5983333 l 0.87313,1.0054167 c -1.29646,1.1641666 -2.59292,2.3547916 -3.83646,3.5454166 z"
       id="path779"
       class="lineaDiscontinua" />
    <path
       d="m 116.13673,1.159911 -0.97896,-0.89958335 c 1.19063,-1.29645835 2.40771,-2.59291665 3.65125,-3.86291665 l 0.9525,0.9260417 c -1.24354,1.27 -2.43417,2.53999996 -3.62479,3.8364583 z"
       id="path773"
       class="lineaDiscontinua" />
    <path
       d="m 111.05673,7.1659526 -1.03188,-0.8202084 c 1.0848,-1.3758333 2.2225,-2.7516666 3.38667,-4.1010416 l 1.00542,0.873125 c -1.16417,1.3229167 -2.30188,2.6722917 -3.36021,4.048125 z"
       id="path765"
       class="lineaDiscontinua" />
    <path
       d="m 106.40006,13.542411 -1.08479,-0.740834 c 0.97896,-1.455208 2.03729,-2.9104161 3.09563,-4.3391661 l 1.05833,0.79375 c -1.08479,1.4022921 -2.09021,2.8310421 -3.06917,4.2862501 z"
       id="path759"
       class="lineaDiscontinua" />
    <path
       d="m 102.19319,20.209911 -1.13771,-0.661459 c 0.87312,-1.534583 1.82562,-3.042708 2.77812,-4.524375 l 1.11125,0.714375 c -0.9525,1.455209 -1.87854,2.963334 -2.75166,4.471459 z"
       id="path753"
       class="lineaDiscontinua" />
    <path
       d="m 98.515479,27.168452 -1.190625,-0.582083 c 0.767291,-1.5875 1.5875,-3.175 2.434166,-4.736042 l 1.16417,0.635 c -0.84667,1.534584 -1.666878,3.122084 -2.407711,4.683125 z"
       id="path747"
       class="lineaDiscontinua" />
    <path
       d="m 95.31402,34.391577 -1.217083,-0.502708 c 0.661458,-1.640417 1.375833,-3.280833 2.090208,-4.894792 l 1.217084,0.555625 c -0.740834,1.5875 -1.42875,3.201459 -2.090209,4.841875 z"
       id="path741"
       class="lineaDiscontinua" />
    <path
       d="m 92.61527,41.79991 -1.27,-0.396875 c 0.555625,-1.693333 1.137709,-3.360208 1.74625,-5.027083 l 1.243542,0.47625 c -0.582083,1.613959 -1.164167,3.280833 -1.719792,4.947708 z"
       id="path735"
       class="lineaDiscontinua" />
    <path
       d="m 90.445687,49.366994 -1.27,-0.3175 c 0.449792,-1.719792 0.899583,-3.439584 1.42875,-5.132917 l 1.27,0.370417 c -0.529167,1.666875 -1.005417,3.386666 -1.42875,5.08 z"
       id="path729"
       class="lineaDiscontinua" />
    <path
       d="m 88.725895,57.066369 -1.296458,-0.238125 c 0.3175,-1.74625 0.687917,-3.4925 1.084792,-5.185834 l 1.296458,0.291042 c -0.370417,1.666875 -0.740833,3.413125 -1.084792,5.132917 z"
       id="path723"
       class="lineaDiscontinua" />
    <path
       d="m 87.508812,64.845119 -1.322917,-0.15875 c 0.238125,-1.772709 0.47625,-3.518959 0.767292,-5.265209 l 1.296458,0.211667 c -0.264583,1.719792 -0.529166,3.4925 -0.740833,5.212292 z"
       id="path717"
       class="lineaDiscontinua" />
    <path
       d="M 86.715062,72.703243 85.392145,72.59741 c 0.132292,-1.772708 0.291042,-3.545417 0.47625,-5.291667 l 1.322917,0.132292 c -0.185208,1.74625 -0.343958,3.518958 -0.47625,5.265208 z"
       id="path705"
       class="lineaDiscontinua" />
    <path
       d="m 86.318187,80.587827 -1.322917,-0.02646 c 0.05292,-1.772708 0.105834,-3.571875 0.211667,-5.291666 l 1.322917,0.07937 c -0.105834,1.719791 -0.15875,3.4925 -0.211667,5.23875 z"
       id="path683"
       class="lineaDiscontinua" />
    <path
       d="m 84.968812,88.525327 c -0.02646,-1.375834 -0.02646,-2.751667 -0.02646,-4.074584 v -0.05292 c 0,-0.396875 0,-0.79375 0,-1.190625 h 1.322916 c 0,0.396875 0,0.767291 0,1.164166 v 0.05292 c 0,1.322917 0,2.69875 0.02646,4.074583 z"
       id="path665"
       class="lineaDiscontinua" />
    <path
       d="m 85.127562,96.462826 c -0.05292,-1.878541 -0.07937,-3.624791 -0.105833,-5.291666 l 1.322916,-0.02646 c 0.02646,1.666874 0.07937,3.413124 0.105834,5.291666 z"
       id="path651"
       class="lineaDiscontinua" />
    <path
       d="m 85.392145,104.40033 c -0.05292,-1.74625 -0.132291,-3.51896 -0.185208,-5.29167 l 1.322917,-0.05292 c 0.05292,1.77271 0.105833,3.51896 0.185208,5.29167 z"
       id="path639"
       class="lineaDiscontinua" />
    <path
       d="m 85.683187,112.33783 c -0.05292,-1.4023 -0.105833,-2.83105 -0.15875,-4.2598 l -0.02646,-1.03187 1.322916,-0.0529 0.02646,1.03188 c 0.05292,1.42875 0.105833,2.8575 0.15875,4.25979 z"
       id="path627"
       class="lineaDiscontinua" />
    <path
       d="m 85.921312,120.27533 c -0.05292,-1.61396 -0.07937,-3.33375 -0.15875,-5.29167 l 1.322917,-0.0529 c 0.05292,1.95792 0.105833,3.67771 0.15875,5.29167 z"
       id="path615"
       class="lineaDiscontinua" />
    <path
       d="m 86.053604,128.18637 c 0,-1.66688 -0.02646,-3.41313 -0.07938,-5.29167 l 1.322916,-0.0265 c 0.02646,1.87854 0.05292,3.62479 0.07937,5.29167 z"
       id="path605"
       class="lineaDiscontinua" />
    <path
       d="m 87.297145,136.12387 -1.322916,-0.0265 c 0.05292,-1.69333 0.05292,-3.46604 0.07938,-5.26521 h 1.322916 c 0,1.82563 -0.02646,3.59833 -0.07937,5.29167 z"
       id="path595"
       class="lineaDiscontinua" />
    <path
       d="m 86.953187,144.06137 -1.322917,-0.0794 c 0.105834,-1.69333 0.211667,-3.46604 0.264584,-5.26521 l 1.322916,0.0529 c -0.07937,1.82563 -0.15875,3.59833 -0.264583,5.29167 z"
       id="path581"
       class="lineaDiscontinua" />
    <path
       d="m 86.212354,151.99887 -1.322917,-0.15875 c 0.211667,-1.69334 0.370417,-3.46604 0.529167,-5.23875 l 1.322916,0.10583 c -0.15875,1.79917 -0.3175,3.57188 -0.529166,5.29167 z"
       id="path571"
       class="lineaDiscontinua" />
    <path
       d="m 85.021729,159.90991 -1.296459,-0.23813 c 0.3175,-1.69333 0.582084,-3.43958 0.846667,-5.18583 l 1.296458,0.18521 c -0.238125,1.74625 -0.529166,3.51896 -0.846666,5.23875 z"
       id="path561"
       class="lineaDiscontinua" />
    <path
       d="m 83.328395,167.68866 -1.269999,-0.3175 c 0.423333,-1.66688 0.820208,-3.38667 1.190624,-5.13292 l 1.296459,0.26459 c -0.370417,1.74625 -0.79375,3.4925 -1.217084,5.18583 z"
       id="path551"
       class="lineaDiscontinua" />
    <path
       d="m 81.052979,175.36158 -1.243542,-0.42334 c 0.555625,-1.64041 1.084792,-3.33375 1.561042,-5.02708 l 1.27,0.37042 c -0.47625,1.69333 -1.005417,3.41312 -1.5875,5.08 z"
       id="path539"
       class="lineaDiscontinua" />
    <path
       d="m 78.221937,182.82283 -1.217083,-0.52917 c 0.687917,-1.61396 1.322917,-3.25438 1.931458,-4.89479 l 1.243542,0.44979 c -0.608542,1.66687 -1.27,3.33375 -1.957917,4.97417 z"
       id="path529"
       class="lineaDiscontinua" />
    <path
       d="m 74.835271,190.01949 -1.164167,-0.60854 c 0.820208,-1.56104 1.5875,-3.14854 2.301875,-4.70958 l 1.217083,0.55562 c -0.767291,1.5875 -1.561041,3.20146 -2.354791,4.7625 z"
       id="path519"
       class="lineaDiscontinua" />
    <path
       d="m 70.892979,196.97803 -1.137708,-0.68791 c 0.926041,-1.50813 1.799166,-3.01625 2.645833,-4.55084 l 1.164167,0.635 c -0.846667,1.53459 -1.74625,3.09563 -2.672292,4.60375 z"
       id="path511"
       class="lineaDiscontinua" />
    <path
       d="m 66.500896,203.61908 -1.084792,-0.7673 c 1.031875,-1.42875 2.010833,-2.91041 2.963333,-4.33916 l 1.11125,0.71437 c -0.9525,1.45521 -1.957916,2.93688 -2.989791,4.39209 z"
       id="path501"
       class="lineaDiscontinua" />
    <path
       d="m 61.659021,209.96908 -1.031875,-0.82021 c 1.11125,-1.37584 2.196041,-2.77813 3.227916,-4.15396 l 1.058334,0.79375 c -1.031875,1.37583 -2.116667,2.80458 -3.254375,4.18042 z"
       id="path497"
       class="lineaDiscontinua" />
    <path
       d="m 56.473187,216.02803 -0.978958,-0.87312 c 1.190625,-1.32292 2.354792,-2.64584 3.466042,-3.96875 l 1.005416,0.84666 c -1.11125,1.32292 -2.275416,2.6723 -3.4925,3.99521 z"
       id="path487"
       class="lineaDiscontinua" />
    <path
       d="m 50.996313,221.79595 -0.926042,-0.92604 c 1.243542,-1.27 2.487083,-2.54 3.65125,-3.78354 l 0.978958,0.89958 c -1.190625,1.27 -2.434166,2.54 -3.704166,3.81 z"
       id="path477"
       class="lineaDiscontinua" />
    <path
       d="m 45.254854,227.29928 -0.899583,-0.97896 c 1.296458,-1.19062 2.592917,-2.4077 3.836458,-3.62479 l 0.926042,0.9525 c -1.243542,1.21709 -2.54,2.46063 -3.862917,3.65125 z"
       id="path467"
       class="lineaDiscontinua" />
    <path
       d="m 39.301729,232.59095 -0.846666,-1.00542 c 1.349375,-1.13771 2.69875,-2.32833 3.96875,-3.46604 l 0.873125,0.97896 c -1.296459,1.16417 -2.645834,2.32833 -3.995209,3.4925 z"
       id="path457"
       class="lineaDiscontinua" />
    <path
       d="m 33.110479,237.61803 -0.820208,-1.03187 c 1.322917,-1.03188 2.645833,-2.09021 3.915833,-3.14854 l 0.185209,-0.15875 0.846666,1.00541 -0.185208,0.15875 c -1.27,1.08479 -2.592917,2.14313 -3.942292,3.175 z"
       id="path451"
       class="lineaDiscontinua" />
    <path
       d="m 26.707563,242.38053 -0.767292,-1.08479 c 1.42875,-1.00542 2.8575,-2.06375 4.259792,-3.12208 l 0.79375,1.05833 c -1.375833,1.05833 -2.831042,2.11667 -4.28625,3.14854 z"
       id="path441"
       class="lineaDiscontinua" />
    <path
       d="m 20.09298,246.85199 -0.714375,-1.11125 c 1.481666,-0.9525 2.963333,-1.93146 4.392083,-2.93687 l 0.740833,1.08479 c -1.42875,1.00541 -2.910416,1.98437 -4.418541,2.96333 z"
       id="path431"
       class="lineaDiscontinua" />
    <path
       d="M 13.293188,251.03241 12.63173,249.8947 c 1.508125,-0.89958 3.042708,-1.79917 4.524375,-2.72521 l 0.714375,1.11125 c -1.508125,0.92604 -3.042709,1.85208 -4.577292,2.75167 z"
       id="path425"
       class="lineaDiscontinua" />
    <path
       d="m 6.3346465,254.92178 -0.635,-1.16416 c 1.5610416,-0.84667 3.1220833,-1.69334 4.6302085,-2.56646 l 0.661458,1.13771 c -1.5081249,0.89958 -3.0956249,1.74625 -4.6566665,2.59291 z"
       id="path417"
       class="lineaDiscontinua" />
    <path
       d="m -0.75618678,258.57303 -0.58208332,-1.19062 c 1.58749997,-0.76729 3.175,-1.5875 4.7095833,-2.38125 l 0.6085416,1.16416 c -1.5610416,0.82021 -3.1485416,1.61396 -4.73604158,2.40771 z"
       id="path407"
       class="lineaDiscontinua" />
    <path
       d="m -8.00577,261.9597 -0.5291667,-1.21708 c 1.6139583,-0.71438 3.2279166,-1.45521 4.8154166,-2.2225 l 0.555625,1.19062 c -1.5875,0.76729 -3.2279166,1.53458 -4.8418749,2.24896 z"
       id="path403"
       class="lineaDiscontinua" />
    <path
       d="m -15.334728,265.10824 -0.502709,-1.21708 c 1.640417,-0.66146 3.280834,-1.34938 4.868334,-2.06375 l 0.529166,1.21708 c -1.613958,0.68792 -3.254375,1.37583 -4.894791,2.06375 z"
       id="path393"
       class="lineaDiscontinua" />
    <path
       d="m -22.76952,268.01866 -0.47625,-1.24354 c 1.666875,-0.60855 3.307292,-1.27 4.947708,-1.905 l 0.47625,1.24354 c -1.613958,0.635 -3.280833,1.27 -4.947708,1.905 z"
       id="path387"
       class="lineaDiscontinua" />
    <path
       d="m -30.283686,270.69095 -0.423334,-1.24354 c 1.666875,-0.58209 3.360209,-1.16417 5.000625,-1.74625 l 0.449792,1.24354 c -1.666875,0.58208 -3.360208,1.16417 -5.027083,1.74625 z"
       id="path377"
       class="lineaDiscontinua" />
    <path
       d="m -37.877228,273.15157 -0.396875,-1.27 c 1.693333,-0.52916 3.386667,-1.05833 5.027083,-1.61395 l 0.423334,1.27 c -1.666875,0.55562 -3.360209,1.11125 -5.053542,1.61395 z"
       id="path369"
       class="lineaDiscontinua" />
    <path
       d="m -45.523686,275.42699 -0.370417,-1.27 c 1.693333,-0.47625 3.413125,-0.97896 5.08,-1.48167 l 0.370417,1.27 c -1.640417,0.50271 -3.360209,1.00542 -5.08,1.48167 z"
       id="path359"
       class="lineaDiscontinua" />
    <path
       d="m -53.196603,277.5172 -0.3175,-1.27 c 1.693334,-0.44979 3.413125,-0.89958 5.106458,-1.34938 l 0.343959,1.27 c -1.719792,0.4498 -3.439583,0.89959 -5.132917,1.34938 z"
       id="path349"
       class="lineaDiscontinua" />
    <path
       d="m -60.948894,279.39574 -0.291042,-1.29646 c 1.719792,-0.39687 3.439583,-0.82021 5.132917,-1.24354 l 0.3175,1.27 c -1.693334,0.44979 -3.439584,0.87313 -5.159375,1.27 z"
       id="path339"
       class="lineaDiscontinua" />
    <path
       d="m -68.727644,281.14199 -0.264584,-1.29646 c 1.719792,-0.37041 3.466042,-0.74083 5.159375,-1.11125 l 0.291042,1.29646 c -1.693333,0.37042 -3.439583,0.74083 -5.185833,1.11125 z"
       id="path321"
       class="lineaDiscontinua" />
    <path
       d="m -76.506394,282.67657 -0.238125,-1.29645 c 1.719791,-0.3175 3.466041,-0.66146 5.185833,-1.00542 l 0.264583,1.29646 c -1.719791,0.34396 -3.4925,0.68791 -5.212291,1.00541 z"
       id="path317"
       class="lineaDiscontinua" />
    <path
       d="m -84.338061,284.07887 -0.211666,-1.29646 c 1.74625,-0.29104 3.4925,-0.60854 5.212291,-0.92604 l 0.238125,1.29645 c -1.74625,0.3175 -3.4925,0.635 -5.23875,0.92605 z"
       id="path311"
       class="lineaDiscontinua" />
    <path
       d="m -92.196186,285.34887 -0.185208,-1.29646 c 1.719792,-0.26459 3.4925,-0.52917 5.212292,-0.82021 l 0.211666,1.29646 c -1.719791,0.26458 -3.4925,0.55562 -5.23875,0.82021 z"
       id="path305"
       class="lineaDiscontinua" />
    <path
       d="m -100.05431,286.46012 -0.18521,-1.32292 c 1.746251,-0.23813 3.492501,-0.47625 5.238751,-0.71438 l 0.185208,1.29646 c -1.719791,0.26459 -3.4925,0.50271 -5.238749,0.74084 z"
       id="path293"
       class="lineaDiscontinua" />
    <path
       d="m -107.91244,287.41262 -0.15875,-1.32292 c 1.74625,-0.21167 3.4925,-0.42333 5.23875,-0.635 l 0.15875,1.32292 c -1.71979,0.23812 -3.4925,0.44979 -5.23875,0.635 z"
       id="path289"
       class="lineaDiscontinua" />
    <path
       d="m -115.79702,288.25928 -0.13229,-1.32291 c 1.77271,-0.18521 3.51896,-0.37042 5.23875,-0.55563 l 0.13229,1.32292 c -1.69333,0.21166 -3.46604,0.39687 -5.23875,0.55562 z"
       id="path285"
       class="lineaDiscontinua" />
    <path
       d="m -123.70806,289.00012 -0.10583,-1.32292 c 1.74625,-0.15875 3.51895,-0.3175 5.2652,-0.47625 l 0.1323,1.32292 c -1.77271,0.15875 -3.54542,0.3175 -5.29167,0.47625 z"
       id="path281"
       class="lineaDiscontinua" />
    <path
       d="m -131.64556,289.60866 -0.0794,-1.32292 c 1.74625,-0.13229 3.51896,-0.23812 5.26521,-0.39687 l 0.10584,1.32291 c -1.74625,0.13229 -3.54542,0.26459 -5.29167,0.39688 z"
       id="path277"
       class="lineaDiscontinua" />
    <path
       d="m -139.58306,290.08491 -0.0794,-1.32292 c 1.74625,-0.10583 3.51896,-0.21167 5.29167,-0.3175 l 0.0794,1.32292 c -1.74625,0.13229 -3.51896,0.23812 -5.29167,0.3175 z"
       id="path273"
       class="lineaDiscontinua" />
    <path
       d="m -147.52056,290.48178 -0.0529,-1.32291 c 1.74625,-0.0794 3.54542,-0.15875 5.29167,-0.23813 l 0.0529,1.32292 c -1.74625,0.0794 -3.51896,0.15875 -5.29167,0.23812 z"
       id="path269"
       class="lineaDiscontinua" />
    <path
       d="m -155.45806,290.74637 -0.0265,-1.32292 c 1.77271,-0.0529 3.54542,-0.10583 5.29167,-0.18521 l 0.0529,1.32292 c -1.77271,0.0794 -3.54542,0.13229 -5.31813,0.18521 z"
       id="path265"
       class="lineaDiscontinua"
       inkscape:label="path1" />
  </g>
  <g
     inkscape:label="Capa 1 copia"
     inkscape:groupmode="layer"
     id="g2385"
     transform="translate(155.48456,53.688216)">
    <path
       d="m 268.74839,-52.31238 -0.0265,-1.322917 c 1.74625,-0.02646 3.54542,-0.05292 5.29167,-0.05292 v 1.322916 c -1.74625,0.02646 -3.51896,0.02646 -5.26521,0.05292 z"
       id="path2225"
       class="lineaDiscontinua" />
    <path
       d="m 260.81089,-52.100713 -0.0529,-1.322917 c 1.74625,-0.05292 3.54541,-0.105833 5.31812,-0.15875 l 0.0265,1.322917 c -1.77271,0.05292 -3.54542,0.105833 -5.29167,0.15875 z"
       id="path2227"
       class="lineaDiscontinua" />
    <path
       d="m 252.87339,-51.730297 -0.0794,-1.322916 c 1.74625,-0.105834 3.54541,-0.185209 5.29166,-0.264584 l 0.0529,1.322917 c -1.74625,0.07937 -3.51896,0.15875 -5.26521,0.264583 z"
       id="path2229"
       class="lineaDiscontinua" />
    <path
       d="m 244.96235,-51.174672 -0.10583,-1.322916 c 1.74625,-0.132292 3.51896,-0.264584 5.29167,-0.396875 l 0.0794,1.322916 c -1.74625,0.132292 -3.51896,0.264584 -5.26521,0.396875 z"
       id="path2231"
       class="lineaDiscontinua" />
    <path
       d="m 237.10423,-50.433838 -0.13229,-1.322917 c 1.74625,-0.185208 3.51895,-0.343958 5.2652,-0.529167 l 0.10584,1.322917 c -1.74625,0.185208 -3.51896,0.343958 -5.23875,0.529167 z"
       id="path2233"
       class="lineaDiscontinua" />
    <path
       d="m 229.2461,-49.507797 -0.18521,-1.322916 c 1.74625,-0.238125 3.4925,-0.449792 5.26521,-0.635 l 0.15875,1.322916 c -1.74625,0.211667 -3.51896,0.423334 -5.23875,0.635 z"
       id="path2235"
       class="lineaDiscontinua" />
    <path
       d="m 221.41444,-48.370088 -0.21167,-1.296459 c 1.71979,-0.264583 3.4925,-0.529166 5.23875,-0.767291 l 0.18521,1.296458 c -1.74625,0.238125 -3.4925,0.502708 -5.21229,0.767292 z"
       id="path2237"
       class="lineaDiscontinua" />
    <path
       d="m 213.63569,-47.020713 -0.23813,-1.296459 c 1.71979,-0.3175 3.4925,-0.635 5.23875,-0.926041 l 0.21167,1.296458 c -1.77271,0.291042 -3.51896,0.582083 -5.21229,0.926042 z"
       id="path2239"
       class="lineaDiscontinua" />
    <path
       d="m 205.85694,-45.459672 -0.29105,-1.296458 c 1.69334,-0.370417 3.46605,-0.740833 5.18584,-1.058333 l 0.26458,1.296458 c -1.71979,0.3175 -3.46604,0.687917 -5.15937,1.058333 z"
       id="path2241"
       class="lineaDiscontinua" />
    <path
       d="m 198.15756,-43.660505 -0.3175,-1.27 c 1.69333,-0.423333 3.43958,-0.846667 5.15938,-1.217083 l 0.29104,1.296458 c -1.71979,0.343958 -3.43959,0.767292 -5.13292,1.190625 z"
       id="path2243"
       class="lineaDiscontinua" />
    <path
       d="m 190.5111,-41.623213 -0.37041,-1.27 c 1.66687,-0.47625 3.41312,-0.9525 5.10645,-1.402292 l 0.34396,1.27 c -1.71979,0.449792 -3.41312,0.926042 -5.08,1.402292 z"
       id="path2245"
       class="lineaDiscontinua" />
    <path
       d="m 182.91756,-39.321339 -0.39687,-1.269999 c 1.66687,-0.529167 3.3602,-1.058334 5.08,-1.561042 l 0.37041,1.27 c -1.69333,0.47625 -3.38666,1.005416 -5.05354,1.561041 z"
       id="path2247"
       class="lineaDiscontinua" />
    <path
       d="m 175.45631,-36.75488 -0.44979,-1.243542 c 1.64042,-0.608542 3.33375,-1.190625 5.00062,-1.772708 l 0.42334,1.243541 c -1.66688,0.582084 -3.36021,1.164167 -4.97417,1.772709 z"
       id="path2249"
       class="lineaDiscontinua" />
    <path
       d="m 168.07444,-33.89738 -0.50271,-1.217084 c 1.61396,-0.661458 3.28083,-1.322916 4.94771,-1.957916 l 0.47625,1.243541 c -1.66688,0.608542 -3.3073,1.27 -4.92125,1.931459 z"
       id="path2251"
       class="lineaDiscontinua" />
    <path
       d="m 160.82485,-30.72238 -0.55562,-1.190625 c 1.5875,-0.740834 3.22791,-1.455209 4.84187,-2.169584 l 0.52917,1.217084 c -1.61396,0.687916 -3.22792,1.402291 -4.81542,2.143125 z"
       id="path2253"
       class="lineaDiscontinua" />
    <path
       d="m 153.73402,-27.22988 -0.60854,-1.164167 c 1.56104,-0.820208 3.14854,-1.613958 4.73604,-2.38125 l 0.58208,1.190625 c -1.5875,0.740833 -3.175,1.534583 -4.70958,2.354792 z"
       id="path2255"
       class="lineaDiscontinua" />
    <path
       d="m 146.82839,-23.41988 -0.66145,-1.137709 c 1.50812,-0.873125 3.06916,-1.772708 4.6302,-2.619375 l 0.635,1.164167 c -1.5875,0.846667 -3.12208,1.719792 -4.60375,2.592917 z"
       id="path2257"
       class="lineaDiscontinua" />
    <path
       d="m 140.10798,-19.239464 -0.74084,-1.11125 c 1.45521,-0.978958 2.96334,-1.931458 4.47146,-2.8575 l 0.68792,1.137709 c -1.48167,0.926041 -2.96333,1.878541 -4.41854,2.831041 z"
       id="path2259"
       class="lineaDiscontinua" />
    <path
       d="m 133.65214,-14.68863 -0.79375,-1.058334 c 1.4023,-1.058333 2.8575,-2.090208 4.31271,-3.095625 l 0.74084,1.084792 c -1.42875,1.005417 -2.8575,2.037292 -4.2598,3.069167 z"
       id="path2261"
       class="lineaDiscontinua" />
    <path
       d="m 127.46089,-9.7673806 -0.84666,-1.0054164 c 1.34937,-1.137709 2.72521,-2.248959 4.1275,-3.360208 l 0.82021,1.031874 c -1.4023,1.084792 -2.75167,2.196042 -4.10105,3.3337504 z"
       id="path2263"
       class="lineaDiscontinua" />
    <path
       d="m 121.64006,-4.5021723 -0.92604,-0.9525 c 1.27,-1.2170833 2.56646,-2.4077083 3.88937,-3.5983333 l 0.87313,1.0054167 c -1.29646,1.1641666 -2.59292,2.3547916 -3.83646,3.5454166 z"
       id="path2265"
       class="lineaDiscontinua" />
    <path
       d="m 116.13673,1.159911 -0.97896,-0.89958335 c 1.19063,-1.29645835 2.40771,-2.59291665 3.65125,-3.86291665 l 0.9525,0.9260417 c -1.24354,1.27 -2.43417,2.53999996 -3.62479,3.8364583 z"
       id="path2267"
       class="lineaDiscontinua" />
    <path
       d="m 111.05673,7.1659526 -1.03188,-0.8202084 c 1.0848,-1.3758333 2.2225,-2.7516666 3.38667,-4.1010416 l 1.00542,0.873125 c -1.16417,1.3229167 -2.30188,2.6722917 -3.36021,4.048125 z"
       id="path2269"
       class="lineaDiscontinua" />
    <path
       d="m 106.40006,13.542411 -1.08479,-0.740834 c 0.97896,-1.455208 2.03729,-2.9104161 3.09563,-4.3391661 l 1.05833,0.79375 c -1.08479,1.4022921 -2.09021,2.8310421 -3.06917,4.2862501 z"
       id="path2271"
       class="lineaDiscontinua" />
    <path
       d="m 102.19319,20.209911 -1.13771,-0.661459 c 0.87312,-1.534583 1.82562,-3.042708 2.77812,-4.524375 l 1.11125,0.714375 c -0.9525,1.455209 -1.87854,2.963334 -2.75166,4.471459 z"
       id="path2273"
       class="lineaDiscontinua" />
    <path
       d="m 98.515479,27.168452 -1.190625,-0.582083 c 0.767291,-1.5875 1.5875,-3.175 2.434166,-4.736042 l 1.16417,0.635 c -0.84667,1.534584 -1.666878,3.122084 -2.407711,4.683125 z"
       id="path2275"
       class="lineaDiscontinua" />
    <path
       d="m 95.31402,34.391577 -1.217083,-0.502708 c 0.661458,-1.640417 1.375833,-3.280833 2.090208,-4.894792 l 1.217084,0.555625 c -0.740834,1.5875 -1.42875,3.201459 -2.090209,4.841875 z"
       id="path2277"
       class="lineaDiscontinua" />
    <path
       d="m 92.61527,41.79991 -1.27,-0.396875 c 0.555625,-1.693333 1.137709,-3.360208 1.74625,-5.027083 l 1.243542,0.47625 c -0.582083,1.613959 -1.164167,3.280833 -1.719792,4.947708 z"
       id="path2279"
       class="lineaDiscontinua" />
    <path
       d="m 90.445687,49.366994 -1.27,-0.3175 c 0.449792,-1.719792 0.899583,-3.439584 1.42875,-5.132917 l 1.27,0.370417 c -0.529167,1.666875 -1.005417,3.386666 -1.42875,5.08 z"
       id="path2281"
       class="lineaDiscontinua" />
    <path
       d="m 88.725895,57.066369 -1.296458,-0.238125 c 0.3175,-1.74625 0.687917,-3.4925 1.084792,-5.185834 l 1.296458,0.291042 c -0.370417,1.666875 -0.740833,3.413125 -1.084792,5.132917 z"
       id="path2283"
       class="lineaDiscontinua" />
    <path
       d="m 87.508812,64.845119 -1.322917,-0.15875 c 0.238125,-1.772709 0.47625,-3.518959 0.767292,-5.265209 l 1.296458,0.211667 c -0.264583,1.719792 -0.529166,3.4925 -0.740833,5.212292 z"
       id="path2285"
       class="lineaDiscontinua" />
    <path
       d="M 86.715062,72.703243 85.392145,72.59741 c 0.132292,-1.772708 0.291042,-3.545417 0.47625,-5.291667 l 1.322917,0.132292 c -0.185208,1.74625 -0.343958,3.518958 -0.47625,5.265208 z"
       id="path2287"
       class="lineaDiscontinua" />
    <path
       d="m 86.318187,80.587827 -1.322917,-0.02646 c 0.05292,-1.772708 0.105834,-3.571875 0.211667,-5.291666 l 1.322917,0.07937 c -0.105834,1.719791 -0.15875,3.4925 -0.211667,5.23875 z"
       id="path2289"
       class="lineaDiscontinua" />
    <path
       d="m 84.968812,88.525327 c -0.02646,-1.375834 -0.02646,-2.751667 -0.02646,-4.074584 v -0.05292 c 0,-0.396875 0,-0.79375 0,-1.190625 h 1.322916 c 0,0.396875 0,0.767291 0,1.164166 v 0.05292 c 0,1.322917 0,2.69875 0.02646,4.074583 z"
       id="path2291"
       class="lineaDiscontinua" />
    <path
       d="m 85.127562,96.462826 c -0.05292,-1.878541 -0.07937,-3.624791 -0.105833,-5.291666 l 1.322916,-0.02646 c 0.02646,1.666874 0.07937,3.413124 0.105834,5.291666 z"
       id="path2293"
       class="lineaDiscontinua" />
    <path
       d="m 85.392145,104.40033 c -0.05292,-1.74625 -0.132291,-3.51896 -0.185208,-5.29167 l 1.322917,-0.05292 c 0.05292,1.77271 0.105833,3.51896 0.185208,5.29167 z"
       id="path2295"
       class="lineaDiscontinua" />
    <path
       d="m 85.683187,112.33783 c -0.05292,-1.4023 -0.105833,-2.83105 -0.15875,-4.2598 l -0.02646,-1.03187 1.322916,-0.0529 0.02646,1.03188 c 0.05292,1.42875 0.105833,2.8575 0.15875,4.25979 z"
       id="path2297"
       class="lineaDiscontinua" />
    <path
       d="m 85.921312,120.27533 c -0.05292,-1.61396 -0.07937,-3.33375 -0.15875,-5.29167 l 1.322917,-0.0529 c 0.05292,1.95792 0.105833,3.67771 0.15875,5.29167 z"
       id="path2299"
       class="lineaDiscontinua" />
    <path
       d="m 86.053604,128.18637 c 0,-1.66688 -0.02646,-3.41313 -0.07938,-5.29167 l 1.322916,-0.0265 c 0.02646,1.87854 0.05292,3.62479 0.07937,5.29167 z"
       id="path2301"
       class="lineaDiscontinua" />
    <path
       d="m 87.297145,136.12387 -1.322916,-0.0265 c 0.05292,-1.69333 0.05292,-3.46604 0.07938,-5.26521 h 1.322916 c 0,1.82563 -0.02646,3.59833 -0.07937,5.29167 z"
       id="path2303"
       class="lineaDiscontinua" />
    <path
       d="m 86.953187,144.06137 -1.322917,-0.0794 c 0.105834,-1.69333 0.211667,-3.46604 0.264584,-5.26521 l 1.322916,0.0529 c -0.07937,1.82563 -0.15875,3.59833 -0.264583,5.29167 z"
       id="path2305"
       class="lineaDiscontinua" />
    <path
       d="m 86.212354,151.99887 -1.322917,-0.15875 c 0.211667,-1.69334 0.370417,-3.46604 0.529167,-5.23875 l 1.322916,0.10583 c -0.15875,1.79917 -0.3175,3.57188 -0.529166,5.29167 z"
       id="path2307"
       class="lineaDiscontinua" />
    <path
       d="m 85.021729,159.90991 -1.296459,-0.23813 c 0.3175,-1.69333 0.582084,-3.43958 0.846667,-5.18583 l 1.296458,0.18521 c -0.238125,1.74625 -0.529166,3.51896 -0.846666,5.23875 z"
       id="path2309"
       class="lineaDiscontinua" />
    <path
       d="m 83.328395,167.68866 -1.269999,-0.3175 c 0.423333,-1.66688 0.820208,-3.38667 1.190624,-5.13292 l 1.296459,0.26459 c -0.370417,1.74625 -0.79375,3.4925 -1.217084,5.18583 z"
       id="path2311"
       class="lineaDiscontinua" />
    <path
       d="m 81.052979,175.36158 -1.243542,-0.42334 c 0.555625,-1.64041 1.084792,-3.33375 1.561042,-5.02708 l 1.27,0.37042 c -0.47625,1.69333 -1.005417,3.41312 -1.5875,5.08 z"
       id="path2313"
       class="lineaDiscontinua" />
    <path
       d="m 78.221937,182.82283 -1.217083,-0.52917 c 0.687917,-1.61396 1.322917,-3.25438 1.931458,-4.89479 l 1.243542,0.44979 c -0.608542,1.66687 -1.27,3.33375 -1.957917,4.97417 z"
       id="path2315"
       class="lineaDiscontinua" />
    <path
       d="m 74.835271,190.01949 -1.164167,-0.60854 c 0.820208,-1.56104 1.5875,-3.14854 2.301875,-4.70958 l 1.217083,0.55562 c -0.767291,1.5875 -1.561041,3.20146 -2.354791,4.7625 z"
       id="path2317"
       class="lineaDiscontinua" />
    <path
       d="m 70.892979,196.97803 -1.137708,-0.68791 c 0.926041,-1.50813 1.799166,-3.01625 2.645833,-4.55084 l 1.164167,0.635 c -0.846667,1.53459 -1.74625,3.09563 -2.672292,4.60375 z"
       id="path2319"
       class="lineaDiscontinua" />
    <path
       d="m 66.500896,203.61908 -1.084792,-0.7673 c 1.031875,-1.42875 2.010833,-2.91041 2.963333,-4.33916 l 1.11125,0.71437 c -0.9525,1.45521 -1.957916,2.93688 -2.989791,4.39209 z"
       id="path2321"
       class="lineaDiscontinua" />
    <path
       d="m 61.659021,209.96908 -1.031875,-0.82021 c 1.11125,-1.37584 2.196041,-2.77813 3.227916,-4.15396 l 1.058334,0.79375 c -1.031875,1.37583 -2.116667,2.80458 -3.254375,4.18042 z"
       id="path2323"
       class="lineaDiscontinua" />
    <path
       d="m 56.473187,216.02803 -0.978958,-0.87312 c 1.190625,-1.32292 2.354792,-2.64584 3.466042,-3.96875 l 1.005416,0.84666 c -1.11125,1.32292 -2.275416,2.6723 -3.4925,3.99521 z"
       id="path2325"
       class="lineaDiscontinua" />
    <path
       d="m 50.996313,221.79595 -0.926042,-0.92604 c 1.243542,-1.27 2.487083,-2.54 3.65125,-3.78354 l 0.978958,0.89958 c -1.190625,1.27 -2.434166,2.54 -3.704166,3.81 z"
       id="path2327"
       class="lineaDiscontinua" />
    <path
       d="m 45.254854,227.29928 -0.899583,-0.97896 c 1.296458,-1.19062 2.592917,-2.4077 3.836458,-3.62479 l 0.926042,0.9525 c -1.243542,1.21709 -2.54,2.46063 -3.862917,3.65125 z"
       id="path2329"
       class="lineaDiscontinua" />
    <path
       d="m 39.301729,232.59095 -0.846666,-1.00542 c 1.349375,-1.13771 2.69875,-2.32833 3.96875,-3.46604 l 0.873125,0.97896 c -1.296459,1.16417 -2.645834,2.32833 -3.995209,3.4925 z"
       id="path2331"
       class="lineaDiscontinua" />
    <path
       d="m 33.110479,237.61803 -0.820208,-1.03187 c 1.322917,-1.03188 2.645833,-2.09021 3.915833,-3.14854 l 0.185209,-0.15875 0.846666,1.00541 -0.185208,0.15875 c -1.27,1.08479 -2.592917,2.14313 -3.942292,3.175 z"
       id="path2333"
       class="lineaDiscontinua" />
    <path
       d="m 26.707563,242.38053 -0.767292,-1.08479 c 1.42875,-1.00542 2.8575,-2.06375 4.259792,-3.12208 l 0.79375,1.05833 c -1.375833,1.05833 -2.831042,2.11667 -4.28625,3.14854 z"
       id="path2335"
       class="lineaDiscontinua" />
    <path
       d="m 20.09298,246.85199 -0.714375,-1.11125 c 1.481666,-0.9525 2.963333,-1.93146 4.392083,-2.93687 l 0.740833,1.08479 c -1.42875,1.00541 -2.910416,1.98437 -4.418541,2.96333 z"
       id="path2337"
       class="lineaDiscontinua" />
    <path
       d="M 13.293188,251.03241 12.63173,249.8947 c 1.508125,-0.89958 3.042708,-1.79917 4.524375,-2.72521 l 0.714375,1.11125 c -1.508125,0.92604 -3.042709,1.85208 -4.577292,2.75167 z"
       id="path2339"
       class="lineaDiscontinua" />
    <path
       d="m 6.3346465,254.92178 -0.635,-1.16416 c 1.5610416,-0.84667 3.1220833,-1.69334 4.6302085,-2.56646 l 0.661458,1.13771 c -1.5081249,0.89958 -3.0956249,1.74625 -4.6566665,2.59291 z"
       id="path2341"
       class="lineaDiscontinua" />
    <path
       d="m -0.75618678,258.57303 -0.58208332,-1.19062 c 1.58749997,-0.76729 3.175,-1.5875 4.7095833,-2.38125 l 0.6085416,1.16416 c -1.5610416,0.82021 -3.1485416,1.61396 -4.73604158,2.40771 z"
       id="path2343"
       class="lineaDiscontinua" />
    <path
       d="m -8.00577,261.9597 -0.5291667,-1.21708 c 1.6139583,-0.71438 3.2279166,-1.45521 4.8154166,-2.2225 l 0.555625,1.19062 c -1.5875,0.76729 -3.2279166,1.53458 -4.8418749,2.24896 z"
       id="path2345"
       class="lineaDiscontinua" />
    <path
       d="m -15.334728,265.10824 -0.502709,-1.21708 c 1.640417,-0.66146 3.280834,-1.34938 4.868334,-2.06375 l 0.529166,1.21708 c -1.613958,0.68792 -3.254375,1.37583 -4.894791,2.06375 z"
       id="path2347"
       class="lineaDiscontinua" />
    <path
       d="m -22.76952,268.01866 -0.47625,-1.24354 c 1.666875,-0.60855 3.307292,-1.27 4.947708,-1.905 l 0.47625,1.24354 c -1.613958,0.635 -3.280833,1.27 -4.947708,1.905 z"
       id="path2349"
       class="lineaDiscontinua" />
    <path
       d="m -30.283686,270.69095 -0.423334,-1.24354 c 1.666875,-0.58209 3.360209,-1.16417 5.000625,-1.74625 l 0.449792,1.24354 c -1.666875,0.58208 -3.360208,1.16417 -5.027083,1.74625 z"
       id="path2351"
       class="lineaDiscontinua" />
    <path
       d="m -37.877228,273.15157 -0.396875,-1.27 c 1.693333,-0.52916 3.386667,-1.05833 5.027083,-1.61395 l 0.423334,1.27 c -1.666875,0.55562 -3.360209,1.11125 -5.053542,1.61395 z"
       id="path2353"
       class="lineaDiscontinua" />
    <path
       d="m -45.523686,275.42699 -0.370417,-1.27 c 1.693333,-0.47625 3.413125,-0.97896 5.08,-1.48167 l 0.370417,1.27 c -1.640417,0.50271 -3.360209,1.00542 -5.08,1.48167 z"
       id="path2355"
       class="lineaDiscontinua" />
    <path
       d="m -53.196603,277.5172 -0.3175,-1.27 c 1.693334,-0.44979 3.413125,-0.89958 5.106458,-1.34938 l 0.343959,1.27 c -1.719792,0.4498 -3.439583,0.89959 -5.132917,1.34938 z"
       id="path2357"
       class="lineaDiscontinua" />
    <path
       d="m -60.948894,279.39574 -0.291042,-1.29646 c 1.719792,-0.39687 3.439583,-0.82021 5.132917,-1.24354 l 0.3175,1.27 c -1.693334,0.44979 -3.439584,0.87313 -5.159375,1.27 z"
       id="path2359"
       class="lineaDiscontinua" />
    <path
       d="m -68.727644,281.14199 -0.264584,-1.29646 c 1.719792,-0.37041 3.466042,-0.74083 5.159375,-1.11125 l 0.291042,1.29646 c -1.693333,0.37042 -3.439583,0.74083 -5.185833,1.11125 z"
       id="path2361"
       class="lineaDiscontinua" />
    <path
       d="m -76.506394,282.67657 -0.238125,-1.29645 c 1.719791,-0.3175 3.466041,-0.66146 5.185833,-1.00542 l 0.264583,1.29646 c -1.719791,0.34396 -3.4925,0.68791 -5.212291,1.00541 z"
       id="path2363"
       class="lineaDiscontinua" />
    <path
       d="m -84.338061,284.07887 -0.211666,-1.29646 c 1.74625,-0.29104 3.4925,-0.60854 5.212291,-0.92604 l 0.238125,1.29645 c -1.74625,0.3175 -3.4925,0.635 -5.23875,0.92605 z"
       id="path2365"
       class="lineaDiscontinua" />
    <path
       d="m -92.196186,285.34887 -0.185208,-1.29646 c 1.719792,-0.26459 3.4925,-0.52917 5.212292,-0.82021 l 0.211666,1.29646 c -1.719791,0.26458 -3.4925,0.55562 -5.23875,0.82021 z"
       id="path2367"
       class="lineaDiscontinua" />
    <path
       d="m -100.05431,286.46012 -0.18521,-1.32292 c 1.746251,-0.23813 3.492501,-0.47625 5.238751,-0.71438 l 0.185208,1.29646 c -1.719791,0.26459 -3.4925,0.50271 -5.238749,0.74084 z"
       id="path2369"
       class="lineaDiscontinua" />
    <path
       d="m -107.91244,287.41262 -0.15875,-1.32292 c 1.74625,-0.21167 3.4925,-0.42333 5.23875,-0.635 l 0.15875,1.32292 c -1.71979,0.23812 -3.4925,0.44979 -5.23875,0.635 z"
       id="path2371"
       class="lineaDiscontinua" />
    <path
       d="m -115.79702,288.25928 -0.13229,-1.32291 c 1.77271,-0.18521 3.51896,-0.37042 5.23875,-0.55563 l 0.13229,1.32292 c -1.69333,0.21166 -3.46604,0.39687 -5.23875,0.55562 z"
       id="path2373"
       class="lineaDiscontinua" />
    <path
       d="m -123.70806,289.00012 -0.10583,-1.32292 c 1.74625,-0.15875 3.51895,-0.3175 5.2652,-0.47625 l 0.1323,1.32292 c -1.77271,0.15875 -3.54542,0.3175 -5.29167,0.47625 z"
       id="path2375"
       class="lineaDiscontinua" />
    <path
       d="m -131.64556,289.60866 -0.0794,-1.32292 c 1.74625,-0.13229 3.51896,-0.23812 5.26521,-0.39687 l 0.10584,1.32291 c -1.74625,0.13229 -3.54542,0.26459 -5.29167,0.39688 z"
       id="path2377"
       class="lineaDiscontinua" />
    <path
       d="m -139.58306,290.08491 -0.0794,-1.32292 c 1.74625,-0.10583 3.51896,-0.21167 5.29167,-0.3175 l 0.0794,1.32292 c -1.74625,0.13229 -3.51896,0.23812 -5.29167,0.3175 z"
       id="path2379"
       class="lineaDiscontinua" />
    <path
       d="m -147.52056,290.48178 -0.0529,-1.32291 c 1.74625,-0.0794 3.54542,-0.15875 5.29167,-0.23813 l 0.0529,1.32292 c -1.74625,0.0794 -3.51896,0.15875 -5.29167,0.23812 z"
       id="path2381"
       class="lineaDiscontinua" />
    <path
       d="m -155.45806,290.74637 -0.0265,-1.32292 c 1.77271,-0.0529 3.54542,-0.10583 5.29167,-0.18521 l 0.0529,1.32292 c -1.77271,0.0794 -3.54542,0.13229 -5.31813,0.18521 z"
       id="path2383"
       class="lineaDiscontinua"
       inkscape:label="path1" />
  </g>
</svg>
